<?xml version="1.0" encoding="UTF-8" standalone="yes"?><svg xmlns="http://www.w3.org/2000/svg" xmlns:xlink="http://www.w3.org/1999/xlink" height="975.7282px" style="width:416px;height:975px;" version="1.1" viewBox="0 0 416 975" width="416.5049px"><defs/><g><polygon fill="#FFFFFF" points="21.3592,23.301,291.2621,23.301,298.0583,51.9948,415.534,51.9948,415.534,974.7573,21.3592,974.7573,21.3592,23.301" style="stroke: #000000; stroke-width: 1.941747572815534;"/><line style="stroke: #000000; stroke-width: 1.941747572815534;" x1="21.3592" x2="298.0583" y1="51.9948" y2="51.9948"/><text fill="#000000" font-family="sans-serif" font-size="19.4175" font-weight="bold" lengthAdjust="spacingAndGlyphs" textLength="264.0777" x="25.2427" y="44.0155">Volume-based processing</text><rect fill="#00AFD7" height="33.1387" rx="12.1359" ry="12.1359" style="stroke: #FFFFFF; stroke-width: 1.4563106796116505;" width="106.7961" x="202.9126" y="64.0777"/><text fill="#FFFFFF" font-family="Nexa Light" font-size="11.6505" lengthAdjust="spacingAndGlyphs" textLength="87.3786" x="212.6214" y="85.0501">brainmask.mgz</text><rect fill="#00AFD7" height="33.1387" rx="12.1359" ry="12.1359" style="stroke: #FFFFFF; stroke-width: 1.4563106796116505;" width="130.0971" x="105.8252" y="135.9223"/><text fill="#FFFFFF" font-family="Nexa Light" font-size="11.6505" lengthAdjust="spacingAndGlyphs" textLength="110.6796" x="115.534" y="156.8947">EM Regi &amp; CA Norm</text><rect fill="#00AFD7" height="33.1387" rx="12.1359" ry="12.1359" style="stroke: #FFFFFF; stroke-width: 1.4563106796116505;" width="61.165" x="87.8641" y="64.0777"/><text fill="#FFFFFF" font-family="Nexa Light" font-size="11.6505" lengthAdjust="spacingAndGlyphs" textLength="41.7476" x="97.5728" y="85.0501">nu.mgz</text><polygon fill="#E5E000" points="218.4466,231.1087,218.4466,217.435,190.5786,207.767,151.1689,207.767,123.301,217.435,123.301,231.1087,151.1689,240.7767,190.5786,240.7767,218.4466,231.1087" style="stroke: #FFFFFF; stroke-width: 1.4563106796116505;"/><text fill="#FFFFFF" font-family="Fira Mono for Powerline" font-size="9.7087" lengthAdjust="spacingAndGlyphs" textLength="75.7282" x="133.0097" y="227.6699">talairach.lta</text><polygon fill="#E5E000" points="342.7184,231.1087,342.7184,217.435,323.3816,207.767,296.0359,207.767,276.699,217.435,276.699,231.1087,296.0359,240.7767,323.3816,240.7767,342.7184,231.1087" style="stroke: #FFFFFF; stroke-width: 1.4563106796116505;"/><text fill="#FFFFFF" font-family="Fira Mono for Powerline" font-size="9.7087" lengthAdjust="spacingAndGlyphs" textLength="46.6019" x="286.4078" y="227.6699">norm.mgz</text><rect fill="#00AFD7" height="33.1387" rx="12.1359" ry="12.1359" style="stroke: #FFFFFF; stroke-width: 1.4563106796116505;" width="104.8544" x="174.7573" y="279.6117"/><text fill="#FFFFFF" font-family="Nexa Light" font-size="11.6505" lengthAdjust="spacingAndGlyphs" textLength="85.4369" x="184.466" y="300.584">CA Registration</text><polygon fill="#E5E000" points="274.7573,374.7981,274.7573,361.1243,246.8893,351.4563,207.4796,351.4563,179.6117,361.1243,179.6117,374.7981,207.4796,384.466,246.8893,384.466,274.7573,374.7981" style="stroke: #FFFFFF; stroke-width: 1.4563106796116505;"/><text fill="#FFFFFF" font-family="Fira Mono for Powerline" font-size="9.7087" lengthAdjust="spacingAndGlyphs" textLength="75.7282" x="189.3204" y="371.3592">talairach.m3z</text><rect fill="#00AFD7" height="33.1387" rx="12.1359" ry="12.1359" style="stroke: #FFFFFF; stroke-width: 1.4563106796116505;" width="96.1165" x="37.3786" y="423.301"/><text fill="#FFFFFF" font-family="Nexa Light" font-size="11.6505" lengthAdjust="spacingAndGlyphs" textLength="76.699" x="47.0874" y="444.2734">Remove Neck</text><polygon fill="#E5E000" points="132.0388,518.4874,132.0388,504.8136,104.1709,495.1456,64.7607,495.1456,36.8932,504.8136,36.8932,518.4874,64.7607,528.1553,104.1709,528.1553,132.0388,518.4874" style="stroke: #FFFFFF; stroke-width: 1.4563106796116505;"/><text fill="#FFFFFF" font-family="Fira Mono for Powerline" font-size="9.7087" lengthAdjust="spacingAndGlyphs" textLength="75.7282" x="46.6019" y="515.0485">nu_noneck.mgz</text><rect fill="#00AFD7" height="33.1387" rx="12.1359" ry="12.1359" style="stroke: #FFFFFF; stroke-width: 1.4563106796116505;" width="161.165" x="36.8932" y="566.9903"/><text fill="#FFFFFF" font-family="Nexa Light" font-size="11.6505" lengthAdjust="spacingAndGlyphs" textLength="141.7476" x="46.6019" y="587.9627">EM Registration with Skull</text><polygon fill="#E5E000" points="207.767,662.1767,207.767,648.5029,157.7194,638.835,86.941,638.835,36.8932,648.5029,36.8932,662.1767,86.941,671.8447,157.7194,671.8447,207.767,662.1767" style="stroke: #FFFFFF; stroke-width: 1.4563106796116505;"/><text fill="#FFFFFF" font-family="Fira Mono for Powerline" font-size="9.7087" lengthAdjust="spacingAndGlyphs" textLength="151.4563" x="46.6019" y="658.7379">talairach_with_skull_2.lta</text><rect fill="#00AFD7" height="33.1387" rx="12.1359" ry="12.1359" style="stroke: #FFFFFF; stroke-width: 1.4563106796116505;" width="141.7476" x="210.6796" y="423.301"/><text fill="#FFFFFF" font-family="Nexa Light" font-size="11.6505" lengthAdjust="spacingAndGlyphs" textLength="122.3301" x="220.3883" y="444.2734">CA Label &amp; ASeg Stats</text><polygon fill="#E5E000" points="260.1942,518.4874,260.1942,504.8136,240.8573,495.1456,213.5117,495.1456,194.1748,504.8136,194.1748,518.4874,213.5117,528.1553,240.8573,528.1553,260.1942,518.4874" style="stroke: #FFFFFF; stroke-width: 1.4563106796116505;"/><text fill="#FFFFFF" font-family="Fira Mono for Powerline" font-size="9.7087" lengthAdjust="spacingAndGlyphs" textLength="46.6019" x="203.8835" y="515.0485">aseg.mgz</text><polygon fill="#E5E000" points="357.2816,518.4874,357.2816,504.8136,334.533,495.1456,302.3602,495.1456,279.6117,504.8136,279.6117,518.4874,302.3602,528.1553,334.533,528.1553,357.2816,518.4874" style="stroke: #FFFFFF; stroke-width: 1.4563106796116505;"/><text fill="#FFFFFF" font-family="Fira Mono for Powerline" font-size="9.7087" lengthAdjust="spacingAndGlyphs" textLength="58.2524" x="289.3204" y="515.0485">aseg.stats</text><rect fill="#00AFD7" height="33.1387" rx="12.1359" ry="12.1359" style="stroke: #FFFFFF; stroke-width: 1.4563106796116505;" width="154.3689" x="217.9612" y="566.9903"/><text fill="#FFFFFF" font-family="Nexa Light" font-size="11.6505" lengthAdjust="spacingAndGlyphs" textLength="134.9515" x="227.6699" y="587.9627">Intensity Normalization2</text><polygon fill="#E5E000" points="351.4563,662.1767,351.4563,648.5029,330.4136,638.835,300.6544,638.835,279.6117,648.5029,279.6117,662.1767,300.6544,671.8447,330.4136,671.8447,351.4563,662.1767" style="stroke: #FFFFFF; stroke-width: 1.4563106796116505;"/><text fill="#FFFFFF" font-family="Fira Mono for Powerline" font-size="9.7087" lengthAdjust="spacingAndGlyphs" textLength="52.4272" x="289.3204" y="658.7379">brain.mgz</text><rect fill="#00AFD7" height="33.1387" rx="12.1359" ry="12.1359" style="stroke: #FFFFFF; stroke-width: 1.4563106796116505;" width="117.4757" x="269.4175" y="710.6796"/><text fill="#FFFFFF" font-family="Nexa Light" font-size="11.6505" lengthAdjust="spacingAndGlyphs" textLength="98.0583" x="279.1262" y="731.652">WM Segmentation</text><polygon fill="#E5E000" points="355.3398,805.866,355.3398,792.1922,339.4155,782.5243,316.8951,782.5243,300.9709,792.1922,300.9709,805.866,316.8951,815.534,339.4155,815.534,355.3398,805.866" style="stroke: #FFFFFF; stroke-width: 1.4563106796116505;"/><text fill="#FFFFFF" font-family="Fira Mono for Powerline" font-size="9.7087" lengthAdjust="spacingAndGlyphs" textLength="34.9515" x="310.6796" y="802.4272">wm.mgz</text><rect fill="#00AFD7" height="33.1387" rx="12.1359" ry="12.1359" style="stroke: #FFFFFF; stroke-width: 1.4563106796116505;" width="58.2524" x="239.8058" y="854.3689"/><text fill="#FFFFFF" font-family="Nexa Light" font-size="11.6505" lengthAdjust="spacingAndGlyphs" textLength="38.835" x="249.5146" y="875.3413">Cut/Fill</text><polygon fill="#E5E000" points="281.5534,805.866,281.5534,792.1922,240.0369,782.5243,181.3223,782.5243,139.8058,792.1922,139.8058,805.866,181.3223,815.534,240.0369,815.534,281.5534,805.866" style="stroke: #FFFFFF; stroke-width: 1.4563106796116505;"/><text fill="#FFFFFF" font-family="Fira Mono for Powerline" font-size="9.7087" lengthAdjust="spacingAndGlyphs" textLength="122.3301" x="149.5146" y="802.4272">aseg.auto_noCCseg.mgz</text><polygon fill="#E5E000" points="307.767,949.555,307.767,935.8819,285.0184,926.2136,252.8456,926.2136,230.0971,935.8819,230.0971,949.555,252.8456,959.2233,285.0184,959.2233,307.767,949.555" style="stroke: #FFFFFF; stroke-width: 1.4563106796116505;"/><text fill="#FFFFFF" font-family="Fira Mono for Powerline" font-size="9.7087" lengthAdjust="spacingAndGlyphs" textLength="58.2524" x="239.8058" y="946.1165">filled.mgz</text><path d="M236.9233,97.4155 C224.1631,107.8563 207.3961,121.5748 193.9485,132.5767 " fill="none" style="stroke: #000000; stroke-width: 0.970873786407767;"/><polygon fill="#000000" points="189.8893,135.8981,199.1115,133.3715,193.6467,132.8245,194.1937,127.3597,189.8893,135.8981" style="stroke: #000000; stroke-width: 0.970873786407767;"/><path d="M130.3427,97.4155 C137.9175,107.5146 147.7932,120.6816 155.899,131.4903 " fill="none" style="stroke: #000000; stroke-width: 0.970873786407767;"/><polygon fill="#000000" points="159.0243,135.6573,156.8883,126.3369,156.1117,131.7738,150.6748,130.9971,159.0243,135.6573" style="stroke: #000000; stroke-width: 0.970873786407767;"/><path d="M170.8738,169.2602 C170.8738,179.0913 170.8738,191.8291 170.8738,202.4689 " fill="none" style="stroke: #000000; stroke-width: 0.970873786407767;"/><polygon fill="#000000" points="170.8738,207.5019,174.7573,198.7641,170.8738,202.6476,166.9903,198.7641,170.8738,207.5019" style="stroke: #000000; stroke-width: 0.970873786407767;"/><path d="M202.0311,169.0854 C226.3155,181.3126 259.6835,198.1136 282.8107,209.7583 " fill="none" style="stroke: #000000; stroke-width: 0.970873786407767;"/><polygon fill="#000000" points="287.2942,212.0155,281.2363,204.6173,282.9584,209.8324,277.7433,211.5545,287.2942,212.0155" style="stroke: #000000; stroke-width: 0.970873786407767;"/><path d="M183.6515,241.1049 C191.8592,251.2932 202.5816,264.6039 211.3311,275.466 " fill="none" style="stroke: #000000; stroke-width: 0.970873786407767;"/><polygon fill="#000000" points="214.4573,279.3466,211.9999,270.1058,211.4119,275.5663,205.9514,274.9783,214.4573,279.3466" style="stroke: #000000; stroke-width: 0.970873786407767;"/><path d="M293.0087,239.3883 C280.4379,250.0369 263.0854,264.735 249.3534,276.368 " fill="none" style="stroke: #000000; stroke-width: 0.970873786407767;"/><polygon fill="#000000" points="245.5825,279.5612,254.7603,276.8778,249.287,276.424,249.7408,270.9507,245.5825,279.5612" style="stroke: #000000; stroke-width: 0.970873786407767;"/><path d="M254.4932,97.3524 C252.4515,114.865 248.9845,143.9398 245.6311,168.932 C240.6553,206.0204 234.2107,249.1379 230.4049,274.166 " fill="none" style="stroke: #000000; stroke-width: 0.970873786407767;"/><polygon fill="#000000" points="229.634,279.2233,234.7908,271.1711,230.3661,274.4245,227.1127,269.9997,229.634,279.2233" style="stroke: #000000; stroke-width: 0.970873786407767;"/><path d="M227.1845,312.9495 C227.1845,322.7806 227.1845,335.5184 227.1845,346.1583 " fill="none" style="stroke: #000000; stroke-width: 0.970873786407767;"/><polygon fill="#000000" points="227.1845,351.1913,231.068,342.4534,227.1845,346.3369,223.301,342.4534,227.1845,351.1913" style="stroke: #000000; stroke-width: 0.970873786407767;"/><path d="M200.5233,382.0806 C178.2505,393.0641 146.2806,408.8301 121.6854,420.9592 " fill="none" style="stroke: #000000; stroke-width: 0.970873786407767;"/><polygon fill="#000000" points="117.1825,423.1796,126.7369,422.7979,121.5363,421.0326,123.3016,415.8319,117.1825,423.1796" style="stroke: #000000; stroke-width: 0.970873786407767;"/><path d="M110.6408,97.3417 C105.7087,107.9903 99.626,122.4961 96.1165,135.9223 C86.2225,173.7748 85.4369,184.1767 85.4369,223.301 C85.4369,223.301 85.4369,223.301 85.4369,297.0874 C85.4369,340.1777 85.4369,390.6369 85.4369,418.2252 " fill="none" style="stroke: #000000; stroke-width: 0.970873786407767;"/><polygon fill="#000000" points="85.4369,423.1029,89.3204,414.365,85.4369,418.2485,81.5534,414.365,85.4369,423.1029" style="stroke: #000000; stroke-width: 0.970873786407767;"/><path d="M85.2166,456.6388 C85.08,466.4699 84.9031,479.2078 84.7553,489.8476 " fill="none" style="stroke: #000000; stroke-width: 0.970873786407767;"/><polygon fill="#000000" points="84.6854,494.8806,88.6909,486.1979,84.7534,490.0267,80.9247,486.0892,84.6854,494.8806" style="stroke: #000000; stroke-width: 0.970873786407767;"/><path d="M91.9564,528.4835 C96.6834,538.4932 102.8334,551.5165 107.9117,562.2709 " fill="none" style="stroke: #000000; stroke-width: 0.970873786407767;"/><polygon fill="#000000" points="110.0146,566.7252,109.7941,557.1658,107.9412,562.3359,102.7711,560.4831,110.0146,566.7252" style="stroke: #000000; stroke-width: 0.970873786407767;"/><path d="M169.1359,240.9398 C167.9485,251.7961 166.3583,266.5767 165.0485,279.6117 C153.9602,390.0049 169.9136,420.8417 141.7476,528.1553 C138.6524,539.9466 133.2583,552.4136 128.3388,562.4301 " fill="none" style="stroke: #000000; stroke-width: 0.970873786407767;"/><polygon fill="#000000" points="126.1223,566.8485,133.5105,560.7784,128.2983,562.5092,126.5675,557.2969,126.1223,566.8485" style="stroke: #000000; stroke-width: 0.970873786407767;"/><path d="M118.5777,600.3282 C119.2602,610.1592 120.1447,622.8971 120.8835,633.5369 " fill="none" style="stroke: #000000; stroke-width: 0.970873786407767;"/><polygon fill="#000000" points="121.233,638.5699,124.5004,629.5835,120.8959,633.7273,116.7521,630.1228,121.233,638.5699" style="stroke: #000000; stroke-width: 0.970873786407767;"/><path d="M310.934,240.8379 C312.801,269.6107 315.0592,332.8282 303.8835,384.466 C301.3379,396.2282 296.3981,408.6922 291.8107,418.7146 " fill="none" style="stroke: #000000; stroke-width: 0.970873786407767;"/><polygon fill="#000000" points="289.7379,423.1369,296.9621,416.8725,291.7977,418.7412,289.929,413.5768,289.7379,423.1369" style="stroke: #000000; stroke-width: 0.970873786407767;"/><path d="M239.5214,384.7942 C247.4466,394.9825 257.799,408.2932 266.2466,419.1553 " fill="none" style="stroke: #000000; stroke-width: 0.970873786407767;"/><polygon fill="#000000" points="269.265,423.0359,266.9681,413.7539,266.2856,419.2034,260.8361,418.521,269.265,423.0359" style="stroke: #000000; stroke-width: 0.970873786407767;"/><path d="M269.2165,456.6388 C261.2913,466.8272 250.9388,480.1379 242.4913,491 " fill="none" style="stroke: #000000; stroke-width: 0.970873786407767;"/><polygon fill="#000000" points="239.4728,494.8806,247.9018,490.3657,242.4522,491.0481,241.7698,485.5986,239.4728,494.8806" style="stroke: #000000; stroke-width: 0.970873786407767;"/><path d="M289.9252,456.6388 C295.2078,466.6485 302.0816,479.6718 307.7573,490.4262 " fill="none" style="stroke: #000000; stroke-width: 0.970873786407767;"/><polygon fill="#000000" points="310.1078,494.8806,309.4625,485.3404,307.8414,490.5878,302.594,488.9666,310.1078,494.8806" style="stroke: #000000; stroke-width: 0.970873786407767;"/><path d="M309.0602,241.0233 C307.3068,276.6612 301.4068,362.0117 284.466,384.466 C259.8175,417.1379 226.7252,391.4942 200.9709,423.301 C180.3544,448.7631 188.1573,462.5913 184.466,495.1456 C182.8126,509.7233 176.7087,515.7029 184.466,528.1553 C194.9534,544.9913 212.3456,556.7612 230.2728,564.9282 " fill="none" style="stroke: #000000; stroke-width: 0.970873786407767;"/><polygon fill="#000000" points="234.8379,566.9282,228.3917,559.8656,230.3912,564.9808,225.276,566.9803,234.8379,566.9282" style="stroke: #000000; stroke-width: 0.970873786407767;"/><path d="M241.9311,527.7893 C252.032,538.1796 265.5146,552.0466 276.3816,563.2233 " fill="none" style="stroke: #000000; stroke-width: 0.970873786407767;"/><polygon fill="#000000" points="279.9573,566.9019,276.6495,557.9303,276.5729,563.4219,271.0814,563.3453,279.9573,566.9019" style="stroke: #000000; stroke-width: 0.970873786407767;"/><path d="M290.8592,97.1631 C333.0971,118.8903 399.0291,162.5369 399.0291,223.301 C399.0291,223.301 399.0291,223.301 399.0291,440.7767 C399.0291,482.1398 391.6,494.9097 366.9903,528.1553 C356.3641,542.5117 340.9233,554.8777 327.0767,564.1728 " fill="none" style="stroke: #000000; stroke-width: 0.970873786407767;"/><polygon fill="#000000" points="322.8379,566.9583,332.2729,565.4054,326.8948,564.2925,328.0077,558.9143,322.8379,566.9583" style="stroke: #000000; stroke-width: 0.970873786407767;"/><path d="M299.7718,600.3282 C302.666,610.2485 306.4223,623.1291 309.5427,633.8262 " fill="none" style="stroke: #000000; stroke-width: 0.970873786407767;"/><polygon fill="#000000" points="310.9262,638.5699,312.2078,629.0942,309.567,633.9097,304.7515,631.2689,310.9262,638.5699" style="stroke: #000000; stroke-width: 0.970873786407767;"/><path d="M318.3981,672.1728 C320.1728,682.0039 322.4728,694.7417 324.3942,705.3816 " fill="none" style="stroke: #000000; stroke-width: 0.970873786407767;"/><polygon fill="#000000" points="325.3029,710.4146,327.5716,701.1256,324.4402,705.6375,319.9283,702.506,325.3029,710.4146" style="stroke: #000000; stroke-width: 0.970873786407767;"/><path d="M323.1359,241.0641 C342.9417,266.0738 377.6699,317.0476 377.6699,366.9903 C377.6699,366.9903 377.6699,366.9903 377.6699,440.7767 C377.6699,543.735 402.8951,577.7223 361.165,671.8447 C355.8388,683.8573 348.332,696.4505 341.8223,706.4883 " fill="none" style="stroke: #000000; stroke-width: 0.970873786407767;"/><polygon fill="#000000" points="339.1029,710.6243,347.1481,705.4564,341.7697,706.568,340.658,701.1896,339.1029,710.6243" style="stroke: #000000; stroke-width: 0.970873786407767;"/><path d="M328.1553,744.0175 C328.1553,753.8485 328.1553,766.5864 328.1553,777.2262 " fill="none" style="stroke: #000000; stroke-width: 0.970873786407767;"/><polygon fill="#000000" points="328.1553,782.2592,332.0388,773.5214,328.1553,777.4049,324.2718,773.5214,328.1553,782.2592" style="stroke: #000000; stroke-width: 0.970873786407767;"/><path d="M315.5951,814.8243 C306.8097,825.1942 294.9864,839.1505 285.4398,850.4184 " fill="none" style="stroke: #000000; stroke-width: 0.970873786407767;"/><polygon fill="#000000" points="282.2971,854.1282,290.9084,849.9715,285.435,850.4243,284.9822,844.9509,282.2971,854.1282" style="stroke: #000000; stroke-width: 0.970873786407767;"/><path d="M223.8981,815.8621 C232.3883,826.0505 243.4806,839.3612 252.532,850.2233 " fill="none" style="stroke: #000000; stroke-width: 0.970873786407767;"/><polygon fill="#000000" points="255.766,854.1039,253.1535,844.9057,252.6575,850.3753,247.1879,849.8793,255.766,854.1039" style="stroke: #000000; stroke-width: 0.970873786407767;"/><path d="M268.932,887.7068 C268.932,897.538 268.932,910.276 268.932,920.9157 " fill="none" style="stroke: #000000; stroke-width: 0.970873786407767;"/><polygon fill="#000000" points="268.932,925.9483,272.8155,917.2104,268.932,921.0939,265.0485,917.2104,268.932,925.9483" style="stroke: #000000; stroke-width: 0.970873786407767;"/></g></svg>