<?xml version="1.0" encoding="UTF-8" standalone="yes"?><svg xmlns="http://www.w3.org/2000/svg" xmlns:xlink="http://www.w3.org/1999/xlink" height="952.2222px" style="width:963px;height:952px;" version="1.1" viewBox="0 0 963 952" width="963.3333px"><defs/><g><polygon fill="#FFFFFF" points="24.4444,26.6667,331.1111,26.6667,338.8889,59.5052,962.2222,59.5052,962.2222,951.1111,24.4444,951.1111,24.4444,26.6667" style="stroke: #000000; stroke-width: 2.2222222222222223;"/><line style="stroke: #000000; stroke-width: 2.2222222222222223;" x1="24.4444" x2="338.8889" y1="59.5052" y2="59.5052"/><text fill="#000000" font-family="sans-serif" font-size="22.2222" font-weight="bold" lengthAdjust="spacingAndGlyphs" textLength="300" x="28.8889" y="50.3733">Surface-based processing</text><rect fill="#00AFD7" height="37.9253" rx="13.8889" ry="13.8889" style="stroke: #FFFFFF; stroke-width: 1.6666666666666667;" width="87.7778" x="523.8889" y="73.3333"/><text fill="#FFFFFF" font-family="Nexa Light" font-size="13.3333" lengthAdjust="spacingAndGlyphs" textLength="65.5556" x="535" y="97.3351">norm.mgz</text><rect fill="#00AFD7" height="37.9253" rx="13.8889" ry="13.8889" style="stroke: #FFFFFF; stroke-width: 1.6666666666666667;" width="150" x="492.7778" y="155.5556"/><text fill="#FFFFFF" font-family="Nexa Light" font-size="13.3333" lengthAdjust="spacingAndGlyphs" textLength="127.7778" x="503.8889" y="179.5573">Tess+Smth1+Infla1</text><rect fill="#00AFD7" height="37.9253" rx="13.8889" ry="13.8889" style="stroke: #FFFFFF; stroke-width: 1.6666666666666667;" width="85.5556" x="415" y="73.3333"/><text fill="#FFFFFF" font-family="Nexa Light" font-size="13.3333" lengthAdjust="spacingAndGlyphs" textLength="63.3333" x="426.1111" y="97.3351">filled.mgz</text><polygon fill="#E5E000" points="477.7778,264.4911,477.7778,248.8422,445.8844,237.7778,400.7822,237.7778,368.8889,248.8422,368.8889,264.4911,400.7822,275.5556,445.8844,275.5556,477.7778,264.4911" style="stroke: #FFFFFF; stroke-width: 1.6666666666666667;"/><text fill="#FFFFFF" font-family="Fira Mono for Powerline" font-size="11.1111" lengthAdjust="spacingAndGlyphs" textLength="86.6667" x="380" y="260.5556">?h.orig.nofix</text><polygon fill="#E5E000" points="635.5556,264.4911,635.5556,248.8422,595.8522,237.7778,539.7033,237.7778,500,248.8422,500,264.4911,539.7033,275.5556,595.8522,275.5556,635.5556,264.4911" style="stroke: #FFFFFF; stroke-width: 1.6666666666666667;"/><text fill="#FFFFFF" font-family="Fira Mono for Powerline" font-size="11.1111" lengthAdjust="spacingAndGlyphs" textLength="113.3333" x="511.1111" y="260.5556">?h.smoothwm.nofix</text><polygon fill="#E5E000" points="793.3333,264.4911,793.3333,248.8422,753.63,237.7778,697.4811,237.7778,657.7778,248.8422,657.7778,264.4911,697.4811,275.5556,753.63,275.5556,793.3333,264.4911" style="stroke: #FFFFFF; stroke-width: 1.6666666666666667;"/><text fill="#FFFFFF" font-family="Fira Mono for Powerline" font-size="11.1111" lengthAdjust="spacingAndGlyphs" textLength="113.3333" x="668.8889" y="260.5556">?h.inflated.nofix</text><polygon fill="#E5E000" points="944.4444,264.4911,944.4444,248.8422,906.6933,237.7778,853.3067,237.7778,815.5556,248.8422,815.5556,264.4911,853.3067,275.5556,906.6933,275.5556,944.4444,264.4911" style="stroke: #FFFFFF; stroke-width: 1.6666666666666667;"/><text fill="#FFFFFF" font-family="Fira Mono for Powerline" font-size="11.1111" lengthAdjust="spacingAndGlyphs" textLength="106.6667" x="826.6667" y="260.5556">?h.qsphere.nofix</text><rect fill="#00AFD7" height="37.9253" rx="13.8889" ry="13.8889" style="stroke: #FFFFFF; stroke-width: 1.6666666666666667;" width="103.3333" x="672.7778" y="320"/><text fill="#FFFFFF" font-family="Nexa Light" font-size="13.3333" lengthAdjust="spacingAndGlyphs" textLength="81.1111" x="683.8889" y="344.0017">Fix Topology</text><polygon fill="#E5E000" points="772.2222,428.9356,772.2222,413.2867,744.2344,402.2222,704.6544,402.2222,676.6667,413.2867,676.6667,428.9356,704.6544,440,744.2344,440,772.2222,428.9356" style="stroke: #FFFFFF; stroke-width: 1.6666666666666667;"/><text fill="#FFFFFF" font-family="Fira Mono for Powerline" font-size="11.1111" lengthAdjust="spacingAndGlyphs" textLength="73.3333" x="687.7778" y="425">?h.inflated</text><polygon fill="#E5E000" points="391.1111,100.0467,391.1111,84.3978,345.55,73.3333,281.1167,73.3333,235.5556,84.3978,235.5556,100.0467,281.1167,111.1111,345.55,111.1111,391.1111,100.0467" style="stroke: #FFFFFF; stroke-width: 1.6666666666666667;"/><text fill="#FFFFFF" font-family="Fira Mono for Powerline" font-size="11.1111" lengthAdjust="spacingAndGlyphs" textLength="133.3333" x="246.6667" y="96.1111">brain.finalsurfs.mgz</text><rect fill="#00AFD7" height="37.9253" rx="13.8889" ry="13.8889" style="stroke: #FFFFFF; stroke-width: 1.6666666666666667;" width="108.8889" x="120" y="155.5556"/><text fill="#FFFFFF" font-family="Nexa Light" font-size="13.3333" lengthAdjust="spacingAndGlyphs" textLength="86.6667" x="131.1111" y="179.5573">Final Surfaces</text><rect fill="#00AFD7" height="37.9253" rx="13.8889" ry="13.8889" style="stroke: #FFFFFF; stroke-width: 1.6666666666666667;" width="76.6667" x="136.1111" y="73.3333"/><text fill="#FFFFFF" font-family="Nexa Light" font-size="13.3333" lengthAdjust="spacingAndGlyphs" textLength="54.4444" x="147.2222" y="97.3351">wm.mgz</text><rect fill="#00AFD7" height="37.9253" rx="13.8889" ry="13.8889" style="stroke: #FFFFFF; stroke-width: 1.6666666666666667;" width="64.4444" x="48.8889" y="73.3333"/><text fill="#FFFFFF" font-family="Nexa Light" font-size="13.3333" lengthAdjust="spacingAndGlyphs" textLength="42.2222" x="60" y="97.3351">?h.orig</text><polygon fill="#E5E000" points="117.7778,264.4911,117.7778,248.8422,95.6481,237.7778,64.3519,237.7778,42.2222,248.8422,42.2222,264.4911,64.3519,275.5556,95.6481,275.5556,117.7778,264.4911" style="stroke: #FFFFFF; stroke-width: 1.6666666666666667;"/><text fill="#FFFFFF" font-family="Fira Mono for Powerline" font-size="11.1111" lengthAdjust="spacingAndGlyphs" textLength="53.3333" x="53.3333" y="260.5556">?h.white</text><polygon fill="#E5E000" points="208.8889,264.4911,208.8889,248.8422,188.7122,237.7778,160.1767,237.7778,140,248.8422,140,264.4911,160.1767,275.5556,188.7122,275.5556,208.8889,264.4911" style="stroke: #FFFFFF; stroke-width: 1.6666666666666667;"/><text fill="#FFFFFF" font-family="Fira Mono for Powerline" font-size="11.1111" lengthAdjust="spacingAndGlyphs" textLength="46.6667" x="151.1111" y="260.5556">?h.pial</text><polygon fill="#E5E000" points="346.6667,264.4911,346.6667,248.8422,312.8211,237.7778,264.9567,237.7778,231.1111,248.8422,231.1111,264.4911,264.9567,275.5556,312.8211,275.5556,346.6667,264.4911" style="stroke: #FFFFFF; stroke-width: 1.6666666666666667;"/><text fill="#FFFFFF" font-family="Fira Mono for Powerline" font-size="11.1111" lengthAdjust="spacingAndGlyphs" textLength="93.3333" x="242.2222" y="260.5556">other_surfaces</text><rect fill="#00AFD7" height="37.9253" rx="13.8889" ry="13.8889" style="stroke: #FFFFFF; stroke-width: 1.6666666666666667;" width="121.1111" x="633.8889" y="484.4444"/><text fill="#FFFFFF" font-family="Nexa Light" font-size="13.3333" lengthAdjust="spacingAndGlyphs" textLength="98.8889" x="645" y="508.4462">Sphere Inflation</text><polygon fill="#E5E000" points="721.1111,593.38,721.1111,577.7311,697.0289,566.6667,662.9711,566.6667,638.8889,577.7311,638.8889,593.38,662.9711,604.4444,697.0289,604.4444,721.1111,593.38" style="stroke: #FFFFFF; stroke-width: 1.6666666666666667;"/><text fill="#FFFFFF" font-family="Fira Mono for Powerline" font-size="11.1111" lengthAdjust="spacingAndGlyphs" textLength="60" x="650" y="589.4444">?h.sphere</text><rect fill="#00AFD7" height="37.9253" rx="13.8889" ry="13.8889" style="stroke: #FFFFFF; stroke-width: 1.6666666666666667;" width="177.7778" x="583.3333" y="648.8889"/><text fill="#FFFFFF" font-family="Nexa Light" font-size="13.3333" lengthAdjust="spacingAndGlyphs" textLength="155.5556" x="594.4444" y="672.8906">Ips&amp;Con Surf Registration</text><polygon fill="#E5E000" points="724.4444,757.8244,724.4444,742.1756,692.5511,731.1111,647.4489,731.1111,615.5556,742.1756,615.5556,757.8244,647.4489,768.8889,692.5511,768.8889,724.4444,757.8244" style="stroke: #FFFFFF; stroke-width: 1.6666666666666667;"/><text fill="#FFFFFF" font-family="Fira Mono for Powerline" font-size="11.1111" lengthAdjust="spacingAndGlyphs" textLength="86.6667" x="626.6667" y="753.8889">?h.sphere.reg</text><rect fill="#00AFD7" height="37.9253" rx="13.8889" ry="13.8889" style="stroke: #FFFFFF; stroke-width: 1.6666666666666667;" width="147.7778" x="592.7778" y="813.3333"/><text fill="#FFFFFF" font-family="Nexa Light" font-size="13.3333" lengthAdjust="spacingAndGlyphs" textLength="125.5556" x="603.8889" y="837.3351">Cor Parc&amp;Parc Stats</text><polygon fill="#E5E000" points="562.2222,922.2684,562.2222,906.6204,528.3767,895.5556,480.5122,895.5556,446.6667,906.6204,446.6667,922.2684,480.5122,933.3333,528.3767,933.3333,562.2222,922.2684" style="stroke: #FFFFFF; stroke-width: 1.6666666666666667;"/><text fill="#FFFFFF" font-family="Fira Mono for Powerline" font-size="11.1111" lengthAdjust="spacingAndGlyphs" textLength="93.3333" x="457.7778" y="918.3333">?h.aparc.annot</text><polygon fill="#E5E000" points="746.6667,922.2684,746.6667,906.6204,699.1533,895.5556,631.9578,895.5556,584.4444,906.6204,584.4444,922.2684,631.9578,933.3333,699.1533,933.3333,746.6667,922.2684" style="stroke: #FFFFFF; stroke-width: 1.6666666666666667;"/><text fill="#FFFFFF" font-family="Fira Mono for Powerline" font-size="11.1111" lengthAdjust="spacingAndGlyphs" textLength="140" x="595.5556" y="918.3333">?h.aparc.a2009s.annot</text><polygon fill="#E5E000" points="944.4444,922.2684,944.4444,906.6204,893.0256,895.5556,820.3078,895.5556,768.8889,906.6204,768.8889,922.2684,820.3078,933.3333,893.0256,933.3333,944.4444,922.2684" style="stroke: #FFFFFF; stroke-width: 1.6666666666666667;"/><text fill="#FFFFFF" font-family="Fira Mono for Powerline" font-size="11.1111" lengthAdjust="spacingAndGlyphs" textLength="153.3333" x="780" y="918.3333">?h.aparc.DTKatlas.annot</text><path d="M567.7778,111.4867 C567.7778,122.7378 567.7778,137.3156 567.7778,149.4922 " fill="none" style="stroke: #000000; stroke-width: 1.1111111111111112;"/><polygon fill="#000000" points="567.7778,155.2522,572.2222,145.2522,567.7778,149.6967,563.3333,145.2522,567.7778,155.2522" style="stroke: #000000; stroke-width: 1.1111111111111112;"/><path d="M482.7389,111.4867 C499.31,123.5378 521.1289,139.4067 538.5156,152.0522 " fill="none" style="stroke: #000000; stroke-width: 1.1111111111111112;"/><polygon fill="#000000" points="543.2944,155.5278,537.823,146.0506,538.8021,152.2593,532.5934,153.2384,543.2944,155.5278" style="stroke: #000000; stroke-width: 1.1111111111111112;"/><path d="M535.3611,193.5089 C512.0656,206.4122 480.7333,223.7644 457.1278,236.8389 " fill="none" style="stroke: #000000; stroke-width: 1.1111111111111112;"/><polygon fill="#000000" points="452.2144,239.56,463.1158,238.6038,457.0746,236.8687,458.8097,230.8276,452.2144,239.56" style="stroke: #000000; stroke-width: 1.1111111111111112;"/><path d="M567.7778,193.7089 C567.7778,204.96 567.7778,219.5378 567.7778,231.7144 " fill="none" style="stroke: #000000; stroke-width: 1.1111111111111112;"/><polygon fill="#000000" points="567.7778,237.4744,572.2222,227.4744,567.7778,231.9189,563.3333,227.4744,567.7778,237.4744" style="stroke: #000000; stroke-width: 1.1111111111111112;"/><path d="M603.1867,193.5089 C628.3989,206.2933 662.2278,223.4456 687.9267,236.4767 " fill="none" style="stroke: #000000; stroke-width: 1.1111111111111112;"/><polygon fill="#000000" points="692.9533,239.0244,686.0443,230.5381,687.9983,236.512,682.0244,238.4661,692.9533,239.0244" style="stroke: #000000; stroke-width: 1.1111111111111112;"/><path d="M637.4578,193.41 C695.0289,208.1611 775.5,228.78 827.6811,242.15 " fill="none" style="stroke: #000000; stroke-width: 1.1111111111111112;"/><polygon fill="#000000" points="833.27,243.5822,824.6868,236.7938,827.8884,242.2027,822.4796,245.4043,833.27,243.5822" style="stroke: #000000; stroke-width: 1.1111111111111112;"/><path d="M464.9378,269.1044 C472.8867,271.2556 481.1433,273.4822 488.8889,275.5556 C549.6744,291.8256 619.3589,310.1989 667.0733,322.7356 " fill="none" style="stroke: #000000; stroke-width: 1.1111111111111112;"/><polygon fill="#000000" points="672.4911,324.1589,663.9481,317.3201,667.1178,322.7477,661.6902,325.9174,672.4911,324.1589" style="stroke: #000000; stroke-width: 1.1111111111111112;"/><path d="M725.3033,275.9311 C725.1467,287.1822 724.9444,301.76 724.7756,313.9367 " fill="none" style="stroke: #000000; stroke-width: 1.1111111111111112;"/><polygon fill="#000000" points="724.6956,319.6967,729.2796,309.7599,724.7733,314.1417,720.3916,309.6354,724.6956,319.6967" style="stroke: #000000; stroke-width: 1.1111111111111112;"/><path d="M848.1456,274.16 C823.98,286.5878 790.5989,303.7556 764.6033,317.1244 " fill="none" style="stroke: #000000; stroke-width: 1.1111111111111112;"/><polygon fill="#000000" points="759.5067,319.7456,770.4323,319.1257,764.4474,317.2053,766.3679,311.2205,759.5067,319.7456" style="stroke: #000000; stroke-width: 1.1111111111111112;"/><path d="M724.4444,358.1533 C724.4444,369.4044 724.4444,383.9822 724.4444,396.1589 " fill="none" style="stroke: #000000; stroke-width: 1.1111111111111112;"/><polygon fill="#000000" points="724.4444,401.9189,728.8889,391.9189,724.4444,396.3633,720,391.9189,724.4444,401.9189" style="stroke: #000000; stroke-width: 1.1111111111111112;"/><path d="M282.1644,111.2867 C260.8989,123.5356 232.6689,139.7956 210.4433,152.5978 " fill="none" style="stroke: #000000; stroke-width: 1.1111111111111112;"/><polygon fill="#000000" points="205.51,155.44,216.3935,154.2985,210.3237,152.6664,211.9558,146.5966,205.51,155.44" style="stroke: #000000; stroke-width: 1.1111111111111112;"/><path d="M174.4444,111.4867 C174.4444,122.7378 174.4444,137.3156 174.4444,149.4922 " fill="none" style="stroke: #000000; stroke-width: 1.1111111111111112;"/><polygon fill="#000000" points="174.4444,155.2522,178.8889,145.2522,174.4444,149.6967,170,145.2522,174.4444,155.2522" style="stroke: #000000; stroke-width: 1.1111111111111112;"/><path d="M414.7667,107.2989 C410.5356,108.6111 406.3,109.9022 402.2222,111.1111 C345.57,127.9044 280.5033,145.5133 234.4567,157.6944 " fill="none" style="stroke: #000000; stroke-width: 1.1111111111111112;"/><polygon fill="#000000" points="228.9378,159.1533,239.7413,160.8961,234.3091,157.7343,237.4709,152.3021,228.9378,159.1533" style="stroke: #000000; stroke-width: 1.1111111111111112;"/><path d="M102.2899,111.4867 C116.23,123.4356 134.5467,139.1356 149.2378,151.7267 " fill="none" style="stroke: #000000; stroke-width: 1.1111111111111112;"/><polygon fill="#000000" points="153.6711,155.5278,148.97,145.6458,149.4527,151.9127,143.1858,152.3953,153.6711,155.5278" style="stroke: #000000; stroke-width: 1.1111111111111112;"/><path d="M153.0133,193.7089 C138.3156,206.1589 118.8089,222.6822 103.6561,235.5178 " fill="none" style="stroke: #000000; stroke-width: 1.1111111111111112;"/><polygon fill="#000000" points="99.1033,239.3733,109.6066,236.3019,103.3427,235.7828,103.8618,229.5189,99.1033,239.3733" style="stroke: #000000; stroke-width: 1.1111111111111112;"/><path d="M174.4444,193.7089 C174.4444,204.96 174.4444,219.5378 174.4444,231.7144 " fill="none" style="stroke: #000000; stroke-width: 1.1111111111111112;"/><polygon fill="#000000" points="174.4444,237.4744,178.8889,227.4744,174.4444,231.9189,170,227.4744,174.4444,237.4744" style="stroke: #000000; stroke-width: 1.1111111111111112;"/><path d="M200.1278,193.5089 C217.4767,205.6367 240.45,221.6956 258.6778,234.4378 " fill="none" style="stroke: #000000; stroke-width: 1.1111111111111112;"/><polygon fill="#000000" points="263.6856,237.9378,258.0363,228.5656,259.1323,234.7546,252.9432,235.8507,263.6856,237.9378" style="stroke: #000000; stroke-width: 1.1111111111111112;"/><path d="M717.6367,440.3756 C713.3789,451.7289 707.8511,466.47 703.26,478.7122 " fill="none" style="stroke: #000000; stroke-width: 1.1111111111111112;"/><polygon fill="#000000" points="701.2244,484.1411,708.8974,476.3386,703.1753,478.9393,700.5746,473.2172,701.2244,484.1411" style="stroke: #000000; stroke-width: 1.1111111111111112;"/><path d="M691.1667,522.5978 C689.1356,533.8489 686.5033,548.4267 684.3044,560.6033 " fill="none" style="stroke: #000000; stroke-width: 1.1111111111111112;"/><polygon fill="#000000" points="683.2644,566.3633,689.4154,557.3124,684.2518,560.8962,680.668,555.7326,683.2644,566.3633" style="stroke: #000000; stroke-width: 1.1111111111111112;"/><path d="M678.2356,604.82 C677.1411,616.0711 675.7244,630.6489 674.54,642.8256 " fill="none" style="stroke: #000000; stroke-width: 1.1111111111111112;"/><polygon fill="#000000" points="673.98,648.5856,679.372,639.063,674.518,643.0561,670.5249,638.2021,673.98,648.5856" style="stroke: #000000; stroke-width: 1.1111111111111112;"/><path d="M671.7178,687.0422 C671.4056,698.2933 671,712.8711 670.6622,725.0478 " fill="none" style="stroke: #000000; stroke-width: 1.1111111111111112;"/><polygon fill="#000000" points="670.5022,730.8078,675.2222,720.9348,670.6562,725.2544,666.3367,720.6884,670.5022,730.8078" style="stroke: #000000; stroke-width: 1.1111111111111112;"/><path d="M669.2433,769.2644 C668.7744,780.5156 668.1678,795.0933 667.66,807.27 " fill="none" style="stroke: #000000; stroke-width: 1.1111111111111112;"/><polygon fill="#000000" points="667.42,813.03,672.2777,803.2241,667.6517,807.4793,663.3966,802.8533,667.42,813.03" style="stroke: #000000; stroke-width: 1.1111111111111112;"/><path d="M630.2611,851.2867 C603.6378,864.4162 567.6689,882.1539 541.0089,895.3014 " fill="none" style="stroke: #000000; stroke-width: 1.1111111111111112;"/><polygon fill="#000000" points="535.8067,897.867,546.7411,897.4303,540.7893,895.4099,542.8097,889.4581,535.8067,897.867" style="stroke: #000000; stroke-width: 1.1111111111111112;"/><path d="M666.4144,851.4867 C666.2578,862.7379 666.0556,877.3159 665.8867,889.4924 " fill="none" style="stroke: #000000; stroke-width: 1.1111111111111112;"/><polygon fill="#000000" points="665.8067,895.2519,670.3898,885.3147,665.884,889.6969,661.5018,885.191,665.8067,895.2519" style="stroke: #000000; stroke-width: 1.1111111111111112;"/><path d="M709.3067,851.2867 C739.5067,864.003 779.9744,881.0421 810.8611,894.0469 " fill="none" style="stroke: #000000; stroke-width: 1.1111111111111112;"/><polygon fill="#000000" points="816.1222,896.2618,808.6323,888.2835,811.0025,894.1048,805.1811,896.475,816.1222,896.2618" style="stroke: #000000; stroke-width: 1.1111111111111112;"/></g></svg>