<?xml version="1.0" encoding="UTF-8" standalone="yes"?><svg xmlns="http://www.w3.org/2000/svg" xmlns:xlink="http://www.w3.org/1999/xlink" height="971.6553px" style="width:393px;height:971px;" version="1.1" viewBox="0 0 393 971" width="393.424px"><defs/><g><polygon fill="#FFFFFF" points="24.9433,27.2109,212.0181,27.2109,219.9546,60.7196,392.2902,60.7196,392.2902,970.5215,24.9433,970.5215,24.9433,27.2109" style="stroke: #000000; stroke-width: 2.2675736961451247;"/><line style="stroke: #000000; stroke-width: 2.2675736961451247;" x1="24.9433" x2="219.9546" y1="60.7196" y2="60.7196"/><text fill="#000000" font-family="sans-serif" font-size="22.6757" font-weight="bold" lengthAdjust="spacingAndGlyphs" textLength="180.2721" x="29.4785" y="51.4013">Pre-processing</text><rect fill="#00AFD7" height="38.6993" rx="14.1723" ry="14.1723" style="stroke: #FFFFFF; stroke-width: 1.7006802721088436;" width="73.6961" x="134.3537" y="74.8299"/><ellipse cx="151.9274" cy="93.688" fill="#FFFFFF" rx="2.8345" ry="2.8345" style="stroke: #FFFFFF; stroke-width: 0.0;"/><text fill="#FFFFFF" font-family="Nexa Light" font-size="13.6054" lengthAdjust="spacingAndGlyphs" textLength="39.6825" x="157.0295" y="99.3215">.nii.gz</text><rect fill="#00AFD7" height="38.6993" rx="14.1723" ry="14.1723" style="stroke: #FFFFFF; stroke-width: 1.7006802721088436;" width="91.8367" x="125.2834" y="158.7302"/><text fill="#FFFFFF" font-family="Nexa Light" font-size="13.6054" lengthAdjust="spacingAndGlyphs" textLength="69.161" x="136.6213" y="183.2217">Conversion</text><polygon fill="#E5E000" points="206.3492,269.8889,206.3492,253.9206,185.7608,242.6304,156.6429,242.6304,136.0544,253.9206,136.0544,269.8889,156.6429,281.1791,185.7608,281.1791,206.3492,269.8889" style="stroke: #FFFFFF; stroke-width: 1.7006802721088436;"/><text fill="#FFFFFF" font-family="Fira Mono for Powerline" font-size="11.3379" lengthAdjust="spacingAndGlyphs" textLength="47.619" x="147.3923" y="265.873">001.mgz</text><rect fill="#00AFD7" height="38.6993" rx="14.1723" ry="14.1723" style="stroke: #FFFFFF; stroke-width: 1.7006802721088436;" width="159.8639" x="91.2698" y="326.5306"/><text fill="#FFFFFF" font-family="Nexa Light" font-size="13.6054" lengthAdjust="spacingAndGlyphs" textLength="137.1882" x="102.6077" y="351.0222">Motion cor&amp; Conform</text><polygon fill="#E5E000" points="209.7506,437.6893,209.7506,421.7211,187.1689,410.4308,155.2347,410.4308,132.6531,421.7211,132.6531,437.6893,155.2347,448.9796,187.1689,448.9796,209.7506,437.6893" style="stroke: #FFFFFF; stroke-width: 1.7006802721088436;"/><text fill="#FFFFFF" font-family="Fira Mono for Powerline" font-size="11.3379" lengthAdjust="spacingAndGlyphs" textLength="54.4218" x="143.9909" y="433.6735">orig.mgz</text><rect fill="#00AFD7" height="38.6993" rx="14.1723" ry="14.1723" style="stroke: #FFFFFF; stroke-width: 1.7006802721088436;" width="120.1814" x="111.1111" y="494.3311"/><text fill="#FFFFFF" font-family="Nexa Light" font-size="13.6054" lengthAdjust="spacingAndGlyphs" textLength="97.5057" x="122.449" y="518.8226">N3 &amp; Talairach</text><polygon fill="#E5E000" points="147.3923,605.4898,147.3923,589.5215,118.8336,578.2313,78.4454,578.2313,49.8866,589.5215,49.8866,605.4898,78.4454,616.78,118.8336,616.78,147.3923,605.4898" style="stroke: #FFFFFF; stroke-width: 1.7006802721088436;"/><text fill="#FFFFFF" font-family="Fira Mono for Powerline" font-size="11.3379" lengthAdjust="spacingAndGlyphs" textLength="74.8299" x="61.2245" y="601.4739">orig_nu.mgz</text><polygon fill="#E5E000" points="154.195,689.39,154.195,673.4218,121.6508,662.1315,75.6276,662.1315,43.0839,673.4218,43.0839,689.39,75.6276,700.6803,121.6508,700.6803,154.195,689.39" style="stroke: #FFFFFF; stroke-width: 1.7006802721088436;"/><text fill="#FFFFFF" font-family="Fira Mono for Powerline" font-size="11.3379" lengthAdjust="spacingAndGlyphs" textLength="88.4354" x="54.4218" y="685.3741">talairach.xfm</text><polygon fill="#E5E000" points="294.7846,605.4898,294.7846,589.5215,276.1882,578.2313,249.8889,578.2313,231.2925,589.5215,231.2925,605.4898,249.8889,616.78,276.1882,616.78,294.7846,605.4898" style="stroke: #FFFFFF; stroke-width: 1.7006802721088436;"/><text fill="#FFFFFF" font-family="Fira Mono for Powerline" font-size="11.3379" lengthAdjust="spacingAndGlyphs" textLength="40.8163" x="242.6304" y="601.4739">nu.mgz</text><rect fill="#00AFD7" height="38.6993" rx="14.1723" ry="14.1723" style="stroke: #FFFFFF; stroke-width: 1.7006802721088436;" width="171.2018" x="177.4376" y="662.1315"/><text fill="#FFFFFF" font-family="Nexa Light" font-size="13.6054" lengthAdjust="spacingAndGlyphs" textLength="148.5261" x="188.7755" y="686.6231">Intensity Normalization</text><polygon fill="#E5E000" points="308.39,773.2902,308.39,757.322,289.7937,746.0317,263.4943,746.0317,244.898,757.322,244.898,773.2902,263.4943,784.5805,289.7937,784.5805,308.39,773.2902" style="stroke: #FFFFFF; stroke-width: 1.7006802721088436;"/><text fill="#FFFFFF" font-family="Fira Mono for Powerline" font-size="11.3379" lengthAdjust="spacingAndGlyphs" textLength="40.8163" x="256.2358" y="769.2744">T1.mgz</text><rect fill="#00AFD7" height="38.6993" rx="14.1723" ry="14.1723" style="stroke: #FFFFFF; stroke-width: 1.7006802721088436;" width="114.5125" x="245.4649" y="829.932"/><text fill="#FFFFFF" font-family="Nexa Light" font-size="13.6054" lengthAdjust="spacingAndGlyphs" textLength="91.8367" x="256.8027" y="854.4235">Skull Stripping</text><polygon fill="#E5E000" points="358.2766,941.0902,358.2766,925.1229,325.7324,913.8322,279.7098,913.8322,247.1655,925.1229,247.1655,941.0902,279.7098,952.381,325.7324,952.381,358.2766,941.0902" style="stroke: #FFFFFF; stroke-width: 1.7006802721088436;"/><text fill="#FFFFFF" font-family="Fira Mono for Powerline" font-size="11.3379" lengthAdjust="spacingAndGlyphs" textLength="88.4354" x="258.5034" y="937.0748">brainmask.mgz</text><path d="M171.2018,113.7619 C171.2018,125.2426 171.2018,140.1179 171.2018,152.5431 " fill="none" style="stroke: #000000; stroke-width: 1.1337868480725624;"/><polygon fill="#000000" points="171.2018,158.4206,175.737,148.2166,171.2018,152.7517,166.6667,148.2166,171.2018,158.4206" style="stroke: #000000; stroke-width: 1.1337868480725624;"/><path d="M171.2018,197.6621 C171.2018,209.1429 171.2018,224.0181 171.2018,236.4433 " fill="none" style="stroke: #000000; stroke-width: 1.1337868480725624;"/><polygon fill="#000000" points="171.2018,242.3209,175.737,232.1168,171.2018,236.6519,166.6667,232.1168,171.2018,242.3209" style="stroke: #000000; stroke-width: 1.1337868480725624;"/><path d="M171.2018,281.5624 C171.2018,293.0431 171.2018,307.9184 171.2018,320.3435 " fill="none" style="stroke: #000000; stroke-width: 1.1337868480725624;"/><polygon fill="#000000" points="171.2018,326.2211,175.737,316.017,171.2018,320.5522,166.6667,316.017,171.2018,326.2211" style="stroke: #000000; stroke-width: 1.1337868480725624;"/><path d="M171.2018,365.4626 C171.2018,376.9433 171.2018,391.8186 171.2018,404.2438 " fill="none" style="stroke: #000000; stroke-width: 1.1337868480725624;"/><polygon fill="#000000" points="171.2018,410.1213,175.737,399.9172,171.2018,404.4524,166.6667,399.9172,171.2018,410.1213" style="stroke: #000000; stroke-width: 1.1337868480725624;"/><path d="M171.2018,449.3628 C171.2018,460.8435 171.2018,475.7188 171.2018,488.144 " fill="none" style="stroke: #000000; stroke-width: 1.1337868480725624;"/><polygon fill="#000000" points="171.2018,494.0215,175.737,483.8175,171.2018,488.3526,166.6667,483.8175,171.2018,494.0215" style="stroke: #000000; stroke-width: 1.1337868480725624;"/><path d="M154.7358,533.263 C144.1599,545.161 130.3424,560.7052 119.0679,573.39 " fill="none" style="stroke: #000000; stroke-width: 1.1337868480725624;"/><polygon fill="#000000" points="115.0398,577.9218,125.2083,573.3074,118.8057,573.6845,118.4286,567.2819,115.0398,577.9218" style="stroke: #000000; stroke-width: 1.1337868480725624;"/><path d="M98.6395,617.1633 C98.6395,628.644 98.6395,643.5193 98.6395,655.9444 " fill="none" style="stroke: #000000; stroke-width: 1.1337868480725624;"/><polygon fill="#000000" points="98.6395,661.822,103.1746,651.6179,98.6395,656.1531,94.1043,651.6179,98.6395,661.822" style="stroke: #000000; stroke-width: 1.1337868480725624;"/><path d="M122.1791,661.9785 C135.2018,650.4796 150.3957,634.4955 158.7302,616.78 C170.398,591.9807 172.5556,560.2166 172.4138,538.7664 " fill="none" style="stroke: #000000; stroke-width: 1.1337868480725624;"/><polygon fill="#000000" points="172.3186,533.0045,167.9503,543.2811,172.4109,538.6727,177.0193,543.1334,172.3186,533.0045" style="stroke: #000000; stroke-width: 1.1337868480725624;"/><path d="M192.0408,533.263 C206.6213,546.2222 226.0669,563.5079 240.9206,576.7109 " fill="none" style="stroke: #000000; stroke-width: 1.1337868480725624;"/><polygon fill="#000000" points="245.3719,580.6689,240.7575,570.5004,241.1346,576.903,234.732,577.2801,245.3719,580.6689" style="stroke: #000000; stroke-width: 1.1337868480725624;"/><path d="M263.0385,617.1633 C263.0385,628.644 263.0385,643.5193 263.0385,655.9444 " fill="none" style="stroke: #000000; stroke-width: 1.1337868480725624;"/><polygon fill="#000000" points="263.0385,661.822,267.5737,651.6179,263.0385,656.1531,258.5034,651.6179,263.0385,661.822" style="stroke: #000000; stroke-width: 1.1337868480725624;"/><path d="M266.1259,701.0635 C268.0397,712.5442 270.5181,727.4195 272.5896,739.8447 " fill="none" style="stroke: #000000; stroke-width: 1.1337868480725624;"/><polygon fill="#000000" points="273.5692,745.7222,276.3661,734.9117,272.6377,740.1303,267.4191,736.402,273.5692,745.7222" style="stroke: #000000; stroke-width: 1.1337868480725624;"/><path d="M290.9943,608.1973 C314.2789,617.8163 345.9093,635.1383 360.5442,662.1315 C390.1508,716.7415 347.466,788.7528 321.0136,825.0499 " fill="none" style="stroke: #000000; stroke-width: 1.1337868480725624;"/><polygon fill="#000000" points="317.5567,829.7188,327.2738,824.2171,320.9303,825.163,319.9844,818.8194,317.5567,829.7188" style="stroke: #000000; stroke-width: 1.1337868480725624;"/><path d="M282.5612,784.9637 C286.2619,796.5488 291.0669,811.5907 295.0578,824.0828 " fill="none" style="stroke: #000000; stroke-width: 1.1337868480725624;"/><polygon fill="#000000" points="296.8277,829.6224,298.0428,818.5223,295.1027,824.2223,289.4026,821.2822,296.8277,829.6224" style="stroke: #000000; stroke-width: 1.1337868480725624;"/><path d="M302.7211,868.8639 C302.7211,880.3448 302.7211,895.2203 302.7211,907.6454 " fill="none" style="stroke: #000000; stroke-width: 1.1337868480725624;"/><polygon fill="#000000" points="302.7211,913.5223,307.2562,903.3183,302.7211,907.8534,298.1859,903.3183,302.7211,913.5223" style="stroke: #000000; stroke-width: 1.1337868480725624;"/></g></svg>