<svg xmlns="http://www.w3.org/2000/svg" viewBox="0 0 63.46 42.04"><defs><style>.cls-1{fill:#fff;fill-rule:evenodd;}</style></defs><title>logo</title><g id="Calque_2" data-name="Calque 2"><g id="Calque_1-2" data-name="Calque 1"><path class="cls-1" d="M15,27.55c4.1.16,14-1.8,16.14-2.74A42,42,0,0,0,25.91,24s-6,.8-9.11,1.32-6.71.38-9,1.1A54.77,54.77,0,0,0,0,29.31,63.16,63.16,0,0,1,15,27.55Zm11.2,3.29c-3.4,2.07-4.56,1.54-8.89,2.74S7.65,37.28,2.85,37.76A80.63,80.63,0,0,0,16.8,35.46c2.85-.77,6.95-1.12,9.88-1.76a10,10,0,0,0,5.49-2.52A49.94,49.94,0,0,0,26.24,30.85Zm37-14.16C61.88,12.76,61.95,10,59.5,9.33a27.22,27.22,0,0,0-6-.55S48-1.15,36.77.11c-10.45,1.17-9,10.65-6.92,14.05,2.77,4,16.25,4.5,16.25,4.5a17.23,17.23,0,0,1-5.93-.11c-8.16,2.19-17.6,1.26-21.52-.11-3.43-1.2-10-1.91-13.83-.77,4.13.24,10.68,1.21,14.93,4.06,5.74-.9,9-1.44,14.38,0,2.92.78,8.89.84,11.42-.09-3.21,1.45-7,1.43-12.08.42-2.83-.56-3.76-1.22-9.66-.44-2.51.33-7,1.06-11,1.32s-9.64,0-12.19-1.1C3.54,24.16,11,24.68,14.93,24.59c3.68-.09,8.64-1.19,12-.88s4.26.76,6,1a68.22,68.22,0,0,1-13.39,3.18c-.2,0-9.2-.22-15.81,2.74,9.3-2,10.72-1.34,16.8-1.21A60.49,60.49,0,0,1,36.1,27.87c-3.67.38-11,1-13.92,1.66C19,30.29,15,32.81,9.88,32.27c3.31,2.13,8.36-.07,13.17-1.32s9.45.19,13.72-.11c2.1-.15,3.53-.32,4.47-.46C34.91,35,35,34.9,29.53,36.45,28.37,36.77,18,37.75,10,42c11.32-3.2,16.52-1.14,29.86-7,4-1.75,7.41-4.91,14.71-7.35C59.65,26,64.58,20.62,63.23,16.69ZM48,12.73c.11,1.77-3.31,4.25-6.92.77-2.06.88-6.31-.72-6.92-2.2-3.55-.09-2.69-4-1.32-5.38-.46-3.79,3.89-3.8,5.38-3C40,2.25,41.9,2.34,43.14,4.5c3.3-.88,5.57,2.4,4.28,3.4C49.11,9.25,49.71,12.11,48,12.73Zm8.78,1.57a1.08,1.08,0,0,1,1.35-1c.64,0,1.22.33,1.28,1C59.4,15.16,56.71,15.4,56.75,14.31ZM15.15,37.76c4.82-1.18,6.5-1,10.1-1.32s8.19-1.38,9.33-2.09,5-3.4,5-3.4a26.34,26.34,0,0,1-6.59.22c-2.12,1.5-4.26,3.13-7.57,3.51S17.45,36.1,15.15,37.76Z"/></g></g></svg>